<svg xmlns="http://www.w3.org/2000/svg" viewBox="0 0 600 360" width="600" height="360">
  <defs>
    <linearGradient id="faBg" x1="0" y1="0" x2="1" y2="1">
      <stop offset="0" stop-color="#f0f6f5" />
      <stop offset="1" stop-color="#dbe9e7" />
    </linearGradient>
  </defs>
  <rect width="600" height="360" fill="url(#faBg)" />
  <g stroke="#14a184" stroke-width="2.2" fill="none" stroke-opacity="0.55">
    <path d="M150 180h80M300 180h80M225 120h60a15 15 0 0 1 15 15v30" />
    <path d="M225 240h60a15 15 0 0 0 15-15v-30" />
  </g>
  <g>
    <rect x="72" y="150" width="78" height="60" rx="14" fill="#0f5f52" />
    <rect x="228" y="90" width="78" height="60" rx="14" fill="#ffffff" stroke="#14a184" stroke-opacity="0.4" />
    <rect x="228" y="210" width="78" height="60" rx="14" fill="#ffffff" stroke="#14a184" stroke-opacity="0.4" />
    <rect x="300" y="150" width="78" height="60" rx="14" fill="#2bbfa0" />
    <rect x="450" y="150" width="78" height="60" rx="14" fill="#0f5f52" opacity="0.85" />
  </g>
  <g fill="#ffffff" fill-opacity="0.85">
    <circle cx="111" cy="180" r="5" />
    <circle cx="339" cy="180" r="5" />
    <circle cx="489" cy="180" r="5" />
  </g>
  <g fill="#14a184">
    <circle cx="267" cy="120" r="5" />
    <circle cx="267" cy="240" r="5" />
  </g>
</svg>
